<svg viewBox="0 0 674.86 320" xmlns="http://www.w3.org/2000/svg"><path d="m354.42 90.52c-2.83-1.17-5.78-1.66-8.86-1.66-8.25 0-14.15 4.37-14.15 13.29 0 8.43 5.66 13.79 14.83 13.79 3.14 0 5.85-.49 8.74-1.6l.74 9.11c-3.14.86-6.89 1.35-10.52 1.35-15.51 0-25.72-7.26-25.72-22.4 0-14.34 10.4-22.15 25.48-22.15 4.12 0 7.38.43 10.28 1.35l-.8 8.92zm14.55 20.56c.37 3.51 3.57 6.15 9.42 6.15 3.26 0 6.52-.68 9.78-2.34l.31 7.75c-2.77 1.35-6.83 2.15-11.32 2.15-11.32 0-18.95-6.22-18.95-16.86 0-9.97 7.08-16.74 17.6-16.74 9.66 0 15.51 5.6 15.51 17.29 0 .49-.06 2.15-.12 2.59h-22.21zm12.36-6.46c0-4.25-2.15-6.22-5.78-6.22-3.32 0-6.03 2.21-6.58 6.22h12.37zm25.35-7.08c2.34-3.57 6.71-6.34 11.26-6.34 7.82 0 12.37 4.8 12.37 13.6v19.2h-11.08v-15.2c0-5.91-1.17-8.74-5.11-8.74-2.89 0-4.55 1.35-5.54 3.26-.98 1.91-1.23 4.49-1.23 6.95v13.72h-11.14v-21.6c0-2.71-.06-6.09-.31-10.4h10.4c.12 1.35.25 3.88.25 5.54h.12zm26.66-5.54h6.4v-7.26l10.52-3.45v10.71h7.69v7.57h-7.69v12.55c0 2.46.62 4.86 4.31 4.86 1.17 0 2.4-.12 3.45-.37l.37 7.2c-2.15.43-4.86.68-6.77.68-8.55 0-12.37-3.63-12.37-11.57v-13.35h-5.91zm38.11 19.08c.37 3.51 3.57 6.15 9.42 6.15 3.26 0 6.52-.68 9.78-2.34l.31 7.75c-2.77 1.35-6.83 2.15-11.32 2.15-11.32 0-18.95-6.22-18.95-16.86 0-9.97 7.08-16.74 17.6-16.74 9.66 0 15.51 5.6 15.51 17.29 0 .49-.06 2.15-.12 2.59h-22.21zm12.37-6.46c0-4.25-2.15-6.22-5.78-6.22-3.32 0-6.03 2.21-6.58 6.22h12.37zm24.92-5.6c1.54-4.98 4.43-7.82 9.48-7.82 1.23 0 2.58.12 3.51.43l-.37 9.29c-1.17-.37-2.4-.55-3.63-.55-5.72 0-7.94 3.75-7.94 12.25v11.38h-11.2v-22.46c0-3.38-.06-6.89-.31-9.54h10.03c.12 1.23.31 5.17.31 7.02zm-165.7 42.27c-.86-.25-1.78-.37-2.89-.37-3.02 0-4.37 1.97-4.37 5.35v1.72h7.82v7.57h-7.82v24.43h-11.2v-24.43h-6.46v-7.57h6.46v-2.34c0-8.37 4.12-12.43 13.11-12.43 2.15 0 4.55.25 5.97.62zm39.44 22.77c0 10.22-7.32 16.74-18.52 16.74s-18.46-6.58-18.46-16.61c0-10.52 7.08-16.98 18.65-16.98s18.34 6.58 18.34 16.86zm-25.6-.18c0 5.6 2.95 9.35 7.14 9.35s7.08-3.69 7.08-9.11-2.89-9.35-7.14-9.35-7.08 3.88-7.08 9.11zm40.46-8.86c1.54-4.98 4.43-7.82 9.48-7.82 1.23 0 2.59.12 3.51.43l-.37 9.29c-1.17-.37-2.4-.55-3.63-.55-5.72 0-7.94 3.75-7.94 12.25v11.38h-11.2v-22.46c0-3.38-.06-6.89-.31-9.54h10.03c.12 1.23.31 5.17.31 7.02zm42.74 24.98h-11.63v-42.95h11.63zm17.39-26.46c2.34-3.57 6.71-6.34 11.26-6.34 7.82 0 12.37 4.8 12.37 13.6v19.2h-11.08v-15.2c0-5.91-1.17-8.74-5.11-8.74-2.89 0-4.55 1.35-5.54 3.26-.98 1.91-1.23 4.49-1.23 6.95v13.72h-11.14v-21.6c0-2.71-.06-6.09-.31-10.4h10.4c.12 1.35.25 3.88.25 5.54h.12zm26.67-5.54h6.4v-7.26l10.52-3.45v10.71h7.69v7.57h-7.69v12.55c0 2.46.62 4.86 4.31 4.86 1.17 0 2.4-.12 3.45-.37l.37 7.2c-2.15.43-4.86.68-6.77.68-8.55 0-12.37-3.63-12.37-11.57v-13.35h-5.91zm38.1 19.08c.37 3.51 3.57 6.15 9.42 6.15 3.26 0 6.52-.68 9.78-2.34l.31 7.75c-2.77 1.35-6.83 2.15-11.32 2.15-11.32 0-18.95-6.22-18.95-16.86 0-9.97 7.08-16.74 17.6-16.74 9.66 0 15.51 5.6 15.51 17.29 0 .49-.06 2.15-.12 2.59h-22.21zm12.37-6.46c0-4.25-2.15-6.22-5.78-6.22-3.32 0-6.03 2.21-6.58 6.22h12.37zm24.92-5.6c1.54-4.98 4.43-7.82 9.48-7.82 1.23 0 2.58.12 3.51.43l-.37 9.29c-1.17-.37-2.4-.55-3.63-.55-5.72 0-7.94 3.75-7.94 12.25v11.38h-11.2v-22.46c0-3.38-.06-6.89-.31-9.54h10.03c.12 1.23.31 5.17.31 7.02zm26.87-1.48c2.34-3.57 6.71-6.34 11.26-6.34 7.82 0 12.37 4.8 12.37 13.6v19.2h-11.08v-15.2c0-5.91-1.17-8.74-5.11-8.74-2.89 0-4.55 1.35-5.54 3.26-.98 1.91-1.23 4.49-1.23 6.95v13.72h-11.14v-21.6c0-2.71-.06-6.09-.31-10.4h10.4c.12 1.35.25 3.88.25 5.54h.12zm39.06 13.54c.37 3.51 3.57 6.15 9.42 6.15 3.26 0 6.52-.68 9.78-2.34l.31 7.75c-2.77 1.35-6.83 2.15-11.32 2.15-11.32 0-18.95-6.22-18.95-16.86 0-9.97 7.08-16.74 17.6-16.74 9.66 0 15.51 5.6 15.51 17.29 0 .49-.06 2.15-.12 2.59h-22.21zm12.37-6.46c0-4.25-2.15-6.22-5.78-6.22-3.32 0-6.03 2.21-6.58 6.22h12.37zm11.98-12.62h6.4v-7.26l10.52-3.45v10.71h7.69v7.57h-7.69v12.55c0 2.46.62 4.86 4.31 4.86 1.17 0 2.4-.12 3.45-.37l.37 7.2c-2.15.43-4.86.68-6.77.68-8.55 0-12.37-3.63-12.37-11.57v-13.35h-5.91zm-301.6 54.59c-3.69-1.42-6.89-1.91-9.85-1.91-3.88 0-6.77 1.23-6.77 3.82 0 2.15 1.42 3.08 7.26 5.29 7.63 2.89 11.88 6.46 11.88 13.11 0 8.74-6.77 13.91-17.85 13.91-4.62 0-8.92-.62-12.98-1.85l.92-9.42c4.06 1.79 8.43 2.65 11.51 2.65 4.06 0 6.71-1.41 6.71-4.25 0-2.34-2.03-3.63-7.82-5.79-6.77-2.52-11.45-6.09-11.45-12.61 0-8.8 7.75-13.29 17.54-13.29 4.25 0 8.12.37 11.57 1.42l-.68 8.92zm16.78 20.49c.37 3.51 3.57 6.15 9.42 6.15 3.26 0 6.52-.68 9.78-2.34l.31 7.75c-2.77 1.35-6.83 2.15-11.32 2.15-11.32 0-18.95-6.22-18.95-16.86 0-9.97 7.08-16.74 17.6-16.74 9.66 0 15.51 5.6 15.51 17.29 0 .49-.06 2.15-.12 2.59h-22.21zm12.37-6.46c0-4.25-2.15-6.22-5.78-6.22-3.32 0-6.03 2.21-6.58 6.22h12.37zm38.25-3.94c-1.97-.8-3.94-1.11-5.85-1.11-4.68 0-7.94 2.83-7.94 8.37s3.14 8.31 8.18 8.31c1.85 0 3.69-.25 5.79-1.17l.37 8.25c-2.95.92-5.11 1.23-7.94 1.23-10.83 0-17.72-6.34-17.72-16.74s7.2-16.31 17.48-16.31c3.32 0 5.91.25 8.37 1.17zm28.91 17.72c-2.4 4.12-6.89 6.4-12 6.4-6.95 0-11.57-4.8-11.57-12.06v-20.74h11.14v17.54c0 4.25 1.54 6.15 4.98 6.15 3.75 0 6.46-3.51 6.46-8.43v-15.26h11.32v22.58c0 3.32 0 6.77.31 9.42h-10.28c-.12-1.29-.25-3.51-.25-5.6h-.12zm27.11-19.38c1.54-4.98 4.43-7.82 9.48-7.82 1.23 0 2.59.12 3.51.43l-.37 9.29c-1.17-.37-2.4-.55-3.63-.55-5.72 0-7.94 3.75-7.94 12.25v11.38h-11.2v-22.46c0-3.38-.06-6.89-.31-9.54h10.03c.12 1.23.31 5.17.31 7.02zm27.41-11.7h-11.14v-8.25h11.14zm0 36.68h-11.14v-32h11.14zm3.72-32h6.4v-7.26l10.52-3.45v10.71h7.69v7.57h-7.69v12.55c0 2.46.62 4.86 4.31 4.86 1.17 0 2.4-.12 3.45-.37l.37 7.2c-2.15.43-4.86.68-6.77.68-8.55 0-12.37-3.63-12.37-11.57v-13.35h-5.91zm63.56 0-12.8 33.6c-3.32 8.74-8.31 12.06-15.63 12.06-2.22 0-4.12-.25-6.09-.74l.74-8.37c1.72.49 2.83.62 4.12.62 2.59 0 4.55-1.35 5.23-4.31l-12.25-32.86h11.94l4.62 15.45c.62 1.97 1.54 5.78 1.97 7.94h.12c.49-2.15 1.54-6.22 2.09-7.94l4.49-15.45zm14.59-3.44c0 3.37-2.66 6.03-5.97 6.03s-6.03-2.69-6.03-6.07 2.69-5.93 6.14-5.93c3.2 0 5.86 2.73 5.86 5.97zm-11.01 0c0 2.79 2.25 5.04 5.01 5.04s5.01-2.25 5.01-5.08-2.28-4.94-5.08-4.94-4.94 2.28-4.94 4.98zm2.42-3.68h2.35c1.67 0 3.03.41 3.03 2.08 0 .82-.44 1.5-1.33 1.64v.07c.41.14.61.41.75.72l1.19 2.62h-2.05l-.92-2.18c-.21-.41-.34-.58-1.06-.58h-.21v2.76h-1.77v-7.12zm1.77 3.03h.24c1.09 0 1.53-.21 1.53-.85 0-.58-.44-.72-1.53-.72h-.24z" fill="#083c5c"/><circle cx="160" cy="160" fill="none" r="160"/><path d="m126.1 133.36c0-3.5-1.48-6.06-3.63-7.8-4.17-3.63-11.3-4.31-15.47-4.31-11.84 0-30.01 2.56-30.01 39.16 0 22.47 7.67 38.08 30.41 38.08 4.84 0 11.44-.67 15.07-4.98 1.75-1.88 2.83-4.57 2.83-8.21h2.69c-.27 3.9-.54 8.07-.54 14.4v2.29c-6.06 2.02-15.74 2.96-22.74 2.96-16.95 0-31.08-4.84-39.43-15.2-5.38-6.73-8.48-16.01-8.48-27.72 0-23.28 13.19-37.94 30.41-44.14 6.86-2.42 15.34-2.96 20.45-2.96 10.36 0 19.91 1.48 21.13 1.48-.27 2.56-.27 5.65-.27 8.34 0 3.5.13 6.86.27 8.61zm45.74-12.38c-2.29 2.56-2.56 6.32-2.56 17.9v46.29c0 8.48.4 11.44 1.75 13.46.27.4 2.02 2.96 6.86 3.37v2.42c-5.25-.27-13.45-.4-18.16-.4s-12.78.14-18.03.4v-2.42c1.75 0 4.57-.67 6.59-2.96 2.29-2.56 2.42-6.32 2.42-17.9v-46.29c0-8.48-.27-11.44-1.61-13.46-.27-.4-2.02-2.96-7-3.36v-2.42c5.25.27 13.46.4 18.17.4s12.78-.13 18.03-.4v2.42c-1.61 0-4.44.67-6.46 2.96zm41.58 84.23c-7.13 0-15.88-.67-22.07-2.69v-2.29c0-6.32-.27-11.03-.54-14.94h2.69c.54 4.04 2.29 7.4 5.11 9.55 3.63 2.96 8.61 4.31 13.32 4.31 17.36 0 17.49-11.57 17.49-14.26 0-9.02-5.65-11.97-12.92-16.68l-7.54-4.84c-9.28-6.05-16.01-12.51-16.01-24.76 0-6.19 3.23-23.55 31.22-23.55 12.25 0 17.49 1.21 20.59 1.48-.4 1.75-.27 7-.27 7.27 0 5.38.27 8.07.27 9.55h-2.83c-.27-3.37-1.61-6.06-3.63-8.07-3.5-3.5-9.42-4.31-13.72-4.31-13.86 0-15.47 8.07-15.47 12.65 0 7 4.04 10.36 11.3 14.8l8.61 5.25c10.76 6.59 17.49 12.25 17.49 25.83 0 17.22-13.45 25.7-33.1 25.7zm38.67-8c-2.3 0-4.09 1.75-4.09 3.95s1.77 4.05 4.02 4.05 3.98-1.77 3.98-4.02-1.77-3.98-3.91-3.98zm-.09 7.34c-1.84 0-3.34-1.5-3.34-3.36s1.5-3.32 3.3-3.32 3.39 1.48 3.39 3.3-1.5 3.39-3.34 3.39zm.98-3.29v-.05c.59-.09.89-.55.89-1.09 0-1.11-.91-1.39-2.02-1.39h-1.57v4.75h1.18v-1.84h.14c.48 0 .57.11.71.39l.61 1.45h1.36l-.8-1.75c-.09-.2-.23-.39-.5-.48zm-1.36-.5h-.16v-1.05h.16c.73 0 1.02.09 1.02.48 0 .43-.3.57-1.02.57z" fill="#083c5c"/><path d="m196.6 12.45c-22.3-5.54-45.87-5.89-68.34-1.1-22.46 4.82-43.85 14.71-61.89 28.96-9.02 7.1-17.34 15.13-24.52 24.11-7.21 8.94-13.43 18.68-18.5 28.99-10.09 20.65-15.31 43.62-15.35 66.6.04 22.98 5.26 45.94 15.35 66.6 5.07 10.31 11.29 20.05 18.5 28.99 7.18 8.97 15.5 17 24.52 24.11 18.04 14.25 39.43 24.15 61.89 28.96 22.47 4.78 46.03 4.44 68.34-1.1 1.16-.29 1.73.25.79.77-1.21.64-3.17 1.56-6.4 2.68-3.23 1.11-7.73 2.45-14.05 3.65-6.09 1.12-13.87 2.18-23.78 2.19-6.93-.06-14.93-.37-23.97-1.91-7.17-1.24-15.05-3.01-23.45-5.83-7.07-2.45-14.56-5.54-22.28-9.58-6.74-3.56-13.6-7.87-20.52-13.02-8.45-6.34-16.89-14.02-24.85-23.25-8-9.19-15.32-20.07-21.56-32.49-3.46-7.07-6.6-14.58-9.15-22.64-9.84-31.1-9.84-65.14 0-96.24 2.54-8.06 5.69-15.57 9.15-22.64 6.24-12.42 13.56-23.3 21.56-32.49 7.96-9.23 16.4-16.91 24.85-23.25 6.92-5.14 13.79-9.46 20.52-13.02 7.72-4.04 15.21-7.13 22.28-9.58 8.41-2.83 16.28-4.59 23.45-5.83 9.04-1.54 17.03-1.85 23.97-1.91 9.91 0 17.69 1.07 23.78 2.19 6.33 1.2 10.82 2.53 14.05 3.65s5.19 2.04 6.4 2.68c.94.52.36 1.05-.79.77zm87.45 112.33c0-1.17-.08-3.01-.56-5.86s-1.33-6.74-3.06-11.91c-1.68-4.96-4.14-11.15-8.27-18.46-2.94-5.09-6.51-10.86-11.44-16.87-3.93-4.77-8.54-9.83-14.16-14.83-4.78-4.18-10.22-8.39-16.46-12.37-5.47-3.46-11.55-6.7-18.27-9.62-8.24-3.54-17.48-6.51-27.65-8.46-10.16-1.99-21.28-2.77-33.07-2.09-6.67.45-13.54 1.33-20.55 2.89-27.08 5.98-52.13 20.44-70.84 40.9-4.85 5.3-9.05 10.81-12.78 16.36-6.48 9.87-11.37 19.89-14.73 29.68-3.4 9.78-5.45 19.26-6.5 28.17-.83 7.28-1.07 14.16-.8 20.63.33 7.39 1.26 14.21 2.48 20.44 1.52 7.37 3.6 13.9 5.76 19.68 2.74 7.27 5.95 13.26 8.89 18.34 4.27 7.23 8.4 12.45 11.85 16.39 3.61 4.08 6.55 6.76 8.78 8.6s3.78 2.84 4.8 3.42c.8.44 1.03-.28.33-1-13.43-13.93-23.61-30.97-29.58-49.37-5.94-18.41-7.73-38.17-4.94-57.33 2.65-19.18 9.83-37.67 20.61-53.73 10.81-16.05 25.37-29.53 42.11-39.23 16.77-9.65 35.72-15.51 55.03-16.85 19.3-1.3 38.91 1.73 56.84 9.02 17.99 7.15 34.21 18.59 47.18 32.94 12.95 14.37 22.62 31.7 27.97 50.3.28.96 1.01 1.13 1.03.22z" fill="#037bac"/></svg>