<svg xmlns="http://www.w3.org/2000/svg" width="295.1" height="39.2" viewBox="177.6 301.1 295.1 39.2"><path d="M318.8 301.7h2.2l4 5.1v-5.1h2.2v8.4H325l-4-5.1v5.1h-2.2v-8.4zm16 8.4h-2v-.6c-.4.6-1.1.8-1.7.8-1.7 0-2.9-1.4-2.9-3.1 0-1.6 1.2-3 2.9-3 .7 0 1.3.2 1.8.7v-.6h2v5.8h-.1zm-4.5-2.8c0 .7.5 1.3 1.3 1.3s1.3-.6 1.3-1.3-.5-1.3-1.3-1.3c-.9 0-1.3.6-1.3 1.3zm8.1 2.8h-2v-4h-.7v-1.7h.7v-1.7h2v1.7h1.1v1.7h-1.1v4zm3.9-7.9c0 .6-.5 1.1-1.1 1.1-.6 0-1.1-.5-1.1-1.1 0-.6.5-1.1 1.1-1.1.6 0 1.1.5 1.1 1.1zm-.1 7.9h-2v-5.7h2v5.7zm7.8-2.8c0 1.9-1.6 3-3.4 3-1.8 0-3.4-1.1-3.4-3s1.6-3.1 3.4-3.1c1.8 0 3.4 1.1 3.4 3.1zm-4.8 0c0 .7.5 1.3 1.3 1.3s1.3-.6 1.3-1.3-.5-1.3-1.3-1.3-1.3.6-1.3 1.3zm7.7-2.2c.5-.7 1.1-.9 1.8-.9 1.5 0 2.1 1 2.1 2.4v3.5h-2v-2.8c0-.5.1-1.5-.9-1.5-.8 0-1.1.6-1.1 1.3v3h-2v-5.7h2v.7h.1zm11.6 5h-2v-.6c-.4.6-1.1.8-1.7.8-1.7 0-2.9-1.4-2.9-3.1 0-1.6 1.2-3 2.9-3 .7 0 1.3.2 1.8.7v-.6h2v5.8h-.1zm-4.6-2.8c0 .7.5 1.3 1.3 1.3s1.3-.6 1.3-1.3-.5-1.3-1.3-1.3-1.3.6-1.3 1.3zm8 2.8h-2v-9.2h2v9.2zm7.4 0h-2.2v-8.4h2.2v8.4zm3.4-5c.5-.7 1.1-.9 1.8-.9 1.5 0 2.1 1 2.1 2.4v3.5h-2v-2.8c0-.5.1-1.5-.9-1.5-.8 0-1.1.6-1.1 1.3v3h-2v-5.7h2v.7h.1zm9.1.8c-.3-.2-.7-.3-1.1-.3-.2 0-.6.1-.6.4 0 .4.6.4.9.5.9.2 1.7.6 1.7 1.7 0 1.5-1.4 2.1-2.7 2.1-.8 0-1.6-.2-2.3-.7l.7-1.4c.4.3 1.1.6 1.6.6.3 0 .6-.1.6-.4 0-.4-.6-.5-1.3-.6-.6-.2-1.3-.5-1.3-1.5 0-1.4 1.3-2 2.5-2 .6 0 1.3.1 1.9.4l-.6 1.2zm4.1 4.2h-2v-4h-.7v-1.7h.7v-1.7h2v1.7h1.1v1.7h-1.1v4zm4-7.9c0 .6-.5 1.1-1.1 1.1-.6 0-1.1-.5-1.1-1.1 0-.6.5-1.1 1.1-1.1.6 0 1.1.5 1.1 1.1zm-.2 7.9h-2v-5.7h2v5.7zm3.6 0h-2v-4h-.7v-1.7h.7v-1.7h2v1.7h1.1v1.7h-1.1v4zm3.8-5.7v3.1c0 .7.2 1.2 1 1.2s1-.5 1-1.2v-3.1h2v3.4c0 1.9-1.3 2.5-3 2.5s-3-.6-3-2.5v-3.4h2zm7.5 5.7h-2v-4h-.6v-1.7h.7v-1.7h2v1.7h1.1v1.7h-1.1v4h-.1zm7.7-2.5H414c0 .8.4 1.3 1.3 1.3.4 0 .7-.1 1-.5h1.9c-.3 1.3-1.6 2-2.9 2-1.9 0-3.3-1.1-3.3-3s1.3-3.1 3.2-3.1c2 0 3.1 1.2 3.1 3.3zm-1.9-1.2c-.1-.5-.6-.9-1.1-.9-.6 0-1.1.3-1.2.9h2.3zm13.1.9c0 1.9-1.6 3-3.4 3-1.8 0-3.4-1.1-3.4-3s1.6-3.1 3.4-3.1c1.8 0 3.4 1.1 3.4 3.1zm-4.7 0c0 .7.5 1.3 1.3 1.3s1.3-.6 1.3-1.3-.5-1.3-1.3-1.3c-.9 0-1.3.6-1.3 1.3zm7.8 2.8h-2v-4h-.7v-1.7h.7v-.7c0-.8 0-1.4.6-2 .5-.6 1.2-.9 2-.9.3 0 .6.1.9.2v1.7c-.2-.1-.4-.2-.7-.2-.5 0-.7.3-.7 1v.9h1.4v1.7h-1.4v4h-.1zm-109.2 7.2c-.4-.3-.9-.6-1.4-.6-.4 0-.9.2-.9.7s.6.7 1 .8l.6.2c1.2.3 2.1.9 2.1 2.3 0 .8-.2 1.7-.9 2.3-.7.6-1.5.8-2.4.8-1.1 0-2.1-.4-2.9-1l.9-1.8c.5.5 1.2.9 1.9.9.5 0 1.1-.3 1.1-.8 0-.6-.9-.8-1.3-1-1.4-.4-2.3-.7-2.3-2.4s1.2-2.8 2.9-2.8c.8 0 1.9.3 2.6.7l-1 1.7zm4.4 6.3h-2v-4h-.7v-1.7h.7v-1.7h2v1.7h1.1v1.7h-1.1v4zm8.1 0h-2v-.6c-.4.6-1.1.8-1.7.8-1.7 0-2.9-1.4-2.9-3s1.2-3 2.9-3c.7 0 1.3.2 1.8.7v-.6h2v5.7h-.1zm-4.6-2.9c0 .7.5 1.3 1.3 1.3s1.3-.6 1.3-1.3-.5-1.3-1.3-1.3-1.3.6-1.3 1.3zm7.9-2.1c.5-.7 1.1-.9 1.8-.9 1.5 0 2.1 1 2.1 2.4v3.5h-2v-2.8c0-.5.1-1.5-.9-1.5-.8 0-1.1.6-1.1 1.3v3h-2v-5.7h2v.7h.1zm9.7 4.3c-.4.6-1.1.8-1.7.8-1.7 0-2.9-1.4-2.9-3s1.2-3 2.9-3c.7 0 1.3.2 1.8.7v-4.1h2v9.2h-2v-.6h-.1zm-2.6-2.2c0 .7.5 1.3 1.3 1.3s1.3-.6 1.3-1.3-.5-1.3-1.3-1.3-1.3.6-1.3 1.3zm12.1 2.9h-2v-.6c-.4.6-1.1.8-1.7.8-1.7 0-2.9-1.4-2.9-3s1.2-3 2.9-3c.7 0 1.3.2 1.8.7v-.6h2v5.7h-.1zm-4.5-2.9c0 .7.5 1.3 1.3 1.3s1.3-.6 1.3-1.3-.5-1.3-1.3-1.3c-.9 0-1.3.6-1.3 1.3zm7.9-1.9c.4-.7 1.1-1 1.9-1h.4v1.9c-.3-.2-.5-.2-.9-.2-1.1 0-1.4.7-1.4 1.7v2.3h-2v-5.7h2v1zm7.3 4.1c-.4.6-1.1.8-1.7.8-1.7 0-2.9-1.4-2.9-3s1.2-3 2.9-3c.7 0 1.3.2 1.8.7v-4.1h2v9.2h-2v-.6h-.1zm-2.5-2.2c0 .7.5 1.3 1.3 1.3s1.3-.6 1.3-1.3-.5-1.3-1.3-1.3c-.9 0-1.3.6-1.3 1.3zm9.6-1.4c-.3-.2-.7-.3-1.1-.3-.2 0-.6.1-.6.4 0 .4.6.4.9.5.9.2 1.7.6 1.7 1.7 0 1.5-1.4 2.1-2.7 2.1-.8 0-1.6-.2-2.3-.7l.7-1.4c.4.3 1.1.6 1.6.6.3 0 .6-.1.6-.4 0-.4-.6-.5-1.3-.6-.6-.2-1.3-.5-1.3-1.5 0-1.4 1.3-2 2.5-2 .6 0 1.3.1 1.9.4l-.6 1.2zm12 4.3h-2v-.6c-.4.6-1.1.8-1.7.8-1.7 0-2.9-1.4-2.9-3s1.2-3 2.9-3c.7 0 1.3.2 1.8.7v-.6h2l-.1 5.7zm-4.6-2.9c0 .7.5 1.3 1.3 1.3s1.3-.6 1.3-1.3-.5-1.3-1.3-1.3-1.3.6-1.3 1.3zm7.9-2.1c.5-.7 1.1-.9 1.8-.9 1.5 0 2.1 1 2.1 2.4v3.5h-2v-2.8c0-.5.1-1.5-.9-1.5-.8 0-1.1.6-1.1 1.3v3h-2v-5.7h2v.7h.1zm9.7 4.3c-.4.6-1.1.8-1.7.8-1.7 0-2.9-1.4-2.9-3s1.2-3 2.9-3c.7 0 1.3.2 1.8.7v-4.1h2v9.2h-2l-.1-.6zm-2.6-2.2c0 .7.5 1.3 1.3 1.3s1.3-.6 1.3-1.3-.5-1.3-1.3-1.3-1.3.6-1.3 1.3zm13.1 2.9h-2.2V317h-1.8v-1.8h5.8v1.8h-1.8v6.6zm7.6-2.6H415c0 .8.4 1.3 1.3 1.3.4 0 .7-.1 1-.5h1.9c-.3 1.3-1.6 2-2.9 2-1.9 0-3.3-1.1-3.3-3s1.3-3 3.2-3c2 0 3.1 1.2 3.1 3.2zm-1.9-1.1c-.1-.5-.6-.9-1.1-.9-.6 0-1.1.3-1.2.9h2.3zm6.9-.2c-.3-.2-.7-.4-1-.4-.8 0-1.4.6-1.4 1.4s.6 1.4 1.4 1.4c.4 0 .7-.1 1-.4v1.7c-.4.2-.9.3-1.4.3-1.7 0-3.1-1.3-3.1-3 0-1.8 1.4-3.1 3.2-3.1.5 0 .9.1 1.3.3v1.8zm3.3-5.4v4.3c.5-.6 1-.9 1.8-.9 1.4 0 2.1 1 2.1 2.4v3.5h-2v-2.9c0-.7-.1-1.4-.9-1.4s-1.1.7-1.1 1.4v2.9h-2v-9.2h2.1v-.1zm7.4 4.3c.5-.7 1.1-.9 1.8-.9 1.5 0 2.1 1 2.1 2.4v3.5h-2v-2.8c0-.5.1-1.5-.9-1.5-.8 0-1.1.6-1.1 1.3v3h-2v-5.7h2l.1.7zm11.7 2.1c0 1.9-1.6 3-3.4 3s-3.4-1.1-3.4-3 1.6-3 3.4-3 3.4 1.1 3.4 3zm-4.7 0c0 .7.5 1.3 1.3 1.3s1.3-.6 1.3-1.3-.5-1.3-1.3-1.3-1.3.6-1.3 1.3zm7.7 2.9h-2v-9.2h2v9.2zm7.8-2.9c0 1.9-1.6 3-3.4 3-1.8 0-3.4-1.1-3.4-3s1.6-3 3.4-3c1.8 0 3.4 1.1 3.4 3zm-4.8 0c0 .7.5 1.3 1.3 1.3s1.3-.6 1.3-1.3-.5-1.3-1.3-1.3-1.3.6-1.3 1.3zm12 2.3c0 2.4-1.2 3.4-3.3 3.4-1.3 0-3.1-.7-3.3-2.2h2.3c.1.2.2.3.4.4.2.1.4.1.6.1 1.1 0 1.3-.7 1.3-1.6v-.3c-.5.5-1.1.8-1.8.8-1.7 0-2.8-1.3-2.8-2.9 0-1.7 1.2-3.1 2.9-3.1.7 0 1.3.2 1.7.8v-.6h2v5.2zm-4.6-2.3c0 .7.5 1.3 1.3 1.3s1.3-.6 1.3-1.3-.5-1.3-1.3-1.3-1.3.6-1.3 1.3zm5-2.9h2.3l1.5 2.9 1.5-2.9h2.3l-4.6 8.6h-2.3l1.9-3.6-2.6-5zM319.9 334c0 .6 0 1.3.4 1.9.4.5 1.1.8 1.7.8s1.3-.3 1.6-.7c.4-.5.4-1.3.4-1.9v-5h.9v5.3c0 .9-.1 1.6-.7 2.3-.6.6-1.4 1-2.3 1-.8 0-1.6-.3-2.2-.9-.7-.7-.8-1.5-.8-2.4V329h.9v5h.1zm8.2 2.9c0 .3-.3.6-.6.6s-.6-.3-.6-.6.3-.6.6-.6.6.3.6.6zm5.7-6.3c-.3-.6-.7-.9-1.4-.9s-1.4.5-1.4 1.3c0 .7.7 1.1 1.3 1.3l.6.2c1.1.5 2 1 2 2.4 0 1.5-1.2 2.6-2.6 2.6-1.3 0-2.3-.9-2.6-2.2l.9-.3c.1.9.8 1.6 1.7 1.6.9 0 1.7-.7 1.7-1.6 0-1-.8-1.3-1.5-1.7l-.5-.2c-1-.4-1.8-.9-1.8-2.1 0-1.3 1.1-2.1 2.3-2.1.9 0 1.7.5 2.2 1.3l-.9.4zm3.9 6.3c0 .3-.3.6-.6.6s-.6-.3-.6-.6.3-.6.6-.6.6.3.6.6zm5.4-7.9h1.6c1.3 0 2.3.2 3.3 1s1.4 1.9 1.4 3.2c0 1.2-.4 2.3-1.4 3.1-1 .9-2 1.1-3.3 1.1h-1.6V329zm1.6 7.5c1 0 1.9-.1 2.6-.9.7-.6 1-1.5 1-2.5s-.4-1.9-1.1-2.5c-.8-.7-1.6-.8-2.6-.8h-.6v6.7h.7zm6.4-1.5c0 1 .7 1.7 1.7 1.7.8 0 1.2-.5 1.6-1.1l.8.4c-.5.9-1.3 1.5-2.4 1.5-1.6 0-2.6-1.2-2.6-2.7s.9-2.8 2.5-2.8c1.7 0 2.6 1.4 2.5 3h-4.1zm3.1-.8c-.1-.8-.8-1.4-1.5-1.4-.8 0-1.5.6-1.6 1.4h3.1zm3-1.3c.5-.6 1.1-.9 1.8-.9 1.5 0 2.5 1.3 2.5 2.8s-.9 2.7-2.5 2.7c-.7 0-1.4-.3-1.8-.9v3.7h-.9v-8.2h.9v.8zm0 1.8c0 1 .6 2 1.7 2s1.7-.9 1.7-2c0-1-.7-1.9-1.8-1.9-.9 0-1.6.9-1.6 1.9zm10.4 2.7h-.9v-.7c-.5.6-1.1.9-1.8.9-1.5 0-2.5-1.3-2.5-2.7 0-1.5.9-2.8 2.5-2.8.7 0 1.4.3 1.8.9v-.7h.9v5.1zm-4.3-2.7c0 1 .6 2 1.7 2s1.7-.9 1.7-2c0-1-.7-1.9-1.8-1.9-.9 0-1.6.9-1.6 1.9zm6.8-2c.3-.4.6-.7 1.2-.7.3 0 .5.1.8.2l-.4.8c-.2-.1-.3-.2-.5-.2-1 0-1 1.3-1 1.9v2.6h-.9v-5.2h.9v.6h-.1zm4 4.7h-.9V333h-.5v-.8h.5v-1.9h.9v1.9h.9v.8h-.9v4.4zm2.7-4.7c.3-.4.7-.7 1.3-.7s1.2.3 1.4.9c.3-.6.9-.9 1.6-.9 1.3 0 1.7 1.1 1.7 2.2v3.2h-.9v-3c0-.7 0-1.5-1-1.5s-1.1 1-1.1 1.8v2.8h-.9v-3c0-.6-.1-1.6-.9-1.6-1 0-1.2 1.1-1.2 1.8v2.7h-.9v-5.2h.9v.5zm8.1 2.3c0 1 .7 1.7 1.7 1.7.8 0 1.2-.5 1.6-1.1l.8.4c-.5.9-1.3 1.5-2.4 1.5-1.6 0-2.6-1.2-2.6-2.7s.9-2.8 2.5-2.8c1.7 0 2.6 1.4 2.5 3h-4.1zm3.1-.8c-.1-.8-.8-1.4-1.5-1.4-.8 0-1.5.6-1.6 1.4h3.1zm3.1-1.4c.4-.5.9-.8 1.5-.8 1.4 0 1.8 1 1.8 2.3v3.1h-.9v-3c0-.8-.1-1.6-1.1-1.6-1.2 0-1.3 1.1-1.3 2.1v2.5h-.9v-5.2h.9v.6zm5.9 4.6h-.9V333h-.5v-.8h.5v-1.9h.9v1.9h.9v.8h-.9v4.4zm4.7-2.6c0-1.5 1.2-2.8 2.8-2.8 1.5 0 2.7 1.2 2.7 2.8 0 1.6-1.2 2.7-2.7 2.7s-2.8-1.2-2.8-2.7zm.9 0c0 1.1.8 1.9 1.9 1.9s1.9-.9 1.9-1.9c0-1.1-.8-1.9-1.9-1.9-1.1-.1-1.9.8-1.9 1.9zm6.8 2.6h-.9V333h-.5v-.8h.5v-2.1c0-.4 0-1 .2-1.4.3-.5.8-.7 1.3-.7.2 0 .4 0 .6.1v.9c-.2-.1-.4-.1-.6-.1-.7 0-.7.5-.7 1.4v1.8h1.3v.8h-1.3v4.5h.1zm11.9-6.6c-.7-.7-1.6-1.1-2.6-1.1-1.9 0-3.4 1.6-3.4 3.5 0 1.8 1.5 3.5 3.4 3.5.9 0 1.9-.4 2.5-1.1v1.2c-.7.5-1.6.8-2.5.8-2.4 0-4.4-1.9-4.4-4.3s2-4.4 4.4-4.4c.9 0 1.8.3 2.5.8l.1 1.1zm1.1 4c0-1.5 1.2-2.8 2.8-2.8 1.5 0 2.7 1.2 2.7 2.8 0 1.6-1.2 2.7-2.7 2.7s-2.8-1.2-2.8-2.7zm.9 0c0 1.1.8 1.9 1.9 1.9 1.1 0 1.9-.9 1.9-1.9 0-1.1-.8-1.9-1.9-1.9-1.1-.1-1.9.8-1.9 1.9zm6.7-2.1c.3-.4.7-.7 1.3-.7.6 0 1.2.3 1.4.9.3-.6.9-.9 1.6-.9 1.3 0 1.7 1.1 1.7 2.2v3.2h-.9v-3c0-.7 0-1.5-1-1.5s-1.1 1-1.1 1.8v2.8h-.9v-3c0-.6-.1-1.6-.9-1.6-1 0-1.2 1.1-1.2 1.8v2.7h-.9v-5.2h.9v.5zm8.6 0c.3-.4.7-.7 1.3-.7.6 0 1.2.3 1.4.9.3-.6.9-.9 1.6-.9 1.3 0 1.7 1.1 1.7 2.2v3.2h-.9v-3c0-.7 0-1.5-1-1.5s-1.1 1-1.1 1.8v2.8h-.9v-3c0-.6-.1-1.6-.9-1.6-1 0-1.2 1.1-1.2 1.8v2.7h-.9v-5.2h.9v.5zm8.1 2.3c0 1 .7 1.7 1.7 1.7.8 0 1.2-.5 1.6-1.1l.8.4c-.5.9-1.3 1.5-2.4 1.5-1.6 0-2.6-1.2-2.6-2.7s.9-2.8 2.5-2.8c1.7 0 2.6 1.4 2.5 3h-4.1zm3.2-.8c-.1-.8-.8-1.4-1.5-1.4-.8 0-1.5.6-1.6 1.4h3.1zm3-1.5c.3-.4.6-.7 1.2-.7.3 0 .5.1.8.2l-.4.8c-.2-.1-.3-.2-.5-.2-1 0-1 1.3-1 1.9v2.6h-1v-5.2h.9v.6zm6.7 1c-.4-.5-.9-.9-1.6-.9-1.1 0-1.8.9-1.8 1.9s.7 1.9 1.8 1.9c.7 0 1.3-.3 1.7-.9v1.2c-.5.3-1 .5-1.7.5-1.6 0-2.8-1.2-2.8-2.8 0-1.6 1.3-2.8 2.8-2.8.6 0 1.1.2 1.6.5v1.4zm1.9 1.3c0 1 .7 1.7 1.7 1.7.8 0 1.2-.5 1.6-1.1l.8.4c-.5.9-1.3 1.5-2.4 1.5-1.6 0-2.6-1.2-2.6-2.7s.9-2.8 2.5-2.8c1.7 0 2.6 1.4 2.5 3h-4.1zm3.2-.8c-.1-.8-.8-1.4-1.5-1.4-.8 0-1.5.6-1.6 1.4h3.1zM185 337.4h-7.4v-28.5s0-5.4 5.4-7.2c4.9-1.6 8.1 1.6 8.1 1.6l24.3 26.3c1.2.8 1.7 0 1.7-.8v-27.1h7.5V330c0 2.4-2 5.4-4.9 6.6-2.9 1.1-6.1 1.1-9.8-2.1l-22.8-24.7c-.6-.6-2.2-.7-2.2.5v27.1h.1zm44.4-35.7h7.5v25.6c0 2.7 2.3 2.7 4.5 2.7h33.1c1.4 0 2.9-1.6 2.9-3.3s-1.6-3.4-3.1-3.4h-21.5c-3.7.1-11.4-3.3-11.4-10.5 0-8.8 7.3-10.8 10.6-11.1h60.9v7.5h-15.2v28.2h-7.4v-28.2H253c-3.6-.3-6.1 5.8-.3 6.7h22.9c3.4 0 9.1 3 9.2 10.4 0 7.5-4.4 11.1-9.2 11.1h-33.8c-5.6 0-7.6-1.3-9.6-3.1-1.8-1.8-2.1-2.8-2.7-6.6v-26h-.1z"/></svg>